<svg width="30" height="30" viewBox="0 0 30 30" fill="none" xmlns="http://www.w3.org/2000/svg">
<g clip-path="url(#clip0_2_304)">
<rect width="30" height="30" rx="15" fill="#41479B"/>
<path d="M-7.01381 15H-5.64813L1.63448 10.2087V15H5.56551V10.2087L12.848 15H14.2137C14.4222 15 14.6222 14.9168 14.7696 14.7687C14.9171 14.6207 14.9999 14.4199 15 14.2105V13.5843L8.75179 9.47369H14.9999V5.52631H8.75171L14.9999 1.41572V0.789511C14.9999 0.58012 14.917 0.379305 14.7696 0.231243C14.6221 0.0831806 14.4221 0 14.2136 0H12.8479L5.56533 4.79126V0H1.6343V4.79126L-5.40926 0.157222C-6.23166 0.416577 -6.91922 0.980271 -7.34289 1.71639L-1.55181 5.52631H-7.80005V9.47369H-1.55189L-7.80005 13.5843V14.2105C-7.80006 14.3142 -7.77973 14.4168 -7.74022 14.5126C-7.70072 14.6084 -7.6428 14.6955 -7.56979 14.7688C-7.49678 14.8421 -7.4101 14.9003 -7.3147 14.9399C-7.21931 14.9796 -7.11706 15 -7.01381 15V15Z" fill="#F5F5F5"/>
<path d="M15.0946 6.31578H4.83143V0H2.46309V6.31578H-7.80005V8.68413H2.46309V14.9999H4.83143V8.68413H15.0946V6.31578Z" fill="#FF4B55"/>
<path d="M-7.06438 1.30803L-0.566061 5.52628H0.883991L-6.4938 0.737189C-6.70568 0.904484 -6.89718 1.09608 -7.06438 1.30803V1.30803ZM7.0709 5.52628L14.9744 0.395916C14.837 0.163482 14.5946 0 14.305 0H14.1342L5.62085 5.52628H7.0709ZM0.201714 9.47363L-7.68665 14.5942C-7.55062 14.8322 -7.3045 14.9999 -7.01063 14.9999H-6.86172L1.65186 9.47363H0.201714V9.47363ZM15.082 14.2725L7.68897 9.47372H6.23892L14.6343 14.9233C14.8858 14.8066 15.0583 14.562 15.082 14.2725V14.2725Z" fill="#FF4B55"/>
<path d="M3.80097 19.4878L4.40255 21.4604L6.33046 20.6977C6.49496 20.6326 6.64448 20.819 6.54408 20.9637L5.36637 22.6608L7.16869 23.6823C7.32245 23.7695 7.26909 24.0018 7.09249 24.0141L5.02228 24.1577L5.34199 26.1942C5.36926 26.368 5.15311 26.4714 5.03339 26.3418L3.6296 24.8237L2.22581 26.3418C2.10609 26.4713 1.88994 26.3679 1.91721 26.1942L2.23692 24.1577L0.166713 24.0141C-0.00988891 24.0018 -0.0633393 23.7695 0.0905106 23.6823L1.89283 22.6608L0.715119 20.9637C0.61472 20.819 0.764236 20.6326 0.92874 20.6977L2.85665 21.4604L3.45823 19.4878C3.50979 19.3194 3.74968 19.3194 3.80097 19.4878ZM27.5112 5.46174L27.8051 6.42535L28.7468 6.05282C28.827 6.02107 28.9002 6.11201 28.851 6.18276L28.2758 7.01185L29.1562 7.51092C29.2313 7.55343 29.2052 7.66696 29.1189 7.67288L28.1077 7.74301L28.2638 8.73783C28.2772 8.82276 28.1715 8.87325 28.113 8.80993L27.4273 8.06837L26.7416 8.80993C26.6831 8.87316 26.5775 8.82267 26.5908 8.73783L26.7469 7.74301L25.7357 7.67288C25.6494 7.66687 25.6233 7.55343 25.6984 7.51092L26.5788 7.01185L26.0036 6.18276C25.9544 6.11201 26.0276 6.02107 26.1078 6.05282L27.0496 6.42535L27.3435 5.46174C27.3689 5.37941 27.4862 5.37941 27.5112 5.46174V5.46174ZM20.9584 12.8581L21.2523 13.8217L22.1941 13.4492C22.2743 13.4174 22.3475 13.5084 22.2983 13.5791L21.7231 14.4082L22.6035 14.9073C22.6786 14.9498 22.6525 15.0633 22.5662 15.0692L21.555 15.1394L21.7112 16.1342C21.7246 16.2191 21.6189 16.2696 21.5604 16.2063L20.8747 15.4647L20.189 16.2063C20.1305 16.2695 20.0249 16.219 20.0382 16.1342L20.1944 15.1394L19.1832 15.0692C19.0968 15.0632 19.0707 14.9498 19.1459 14.9073L20.0263 14.4082L19.451 13.5791C19.4019 13.5084 19.4751 13.4174 19.5553 13.4492L20.4971 13.8217L20.791 12.8581C20.8161 12.7758 20.9333 12.7758 20.9584 12.8581V12.8581ZM33.7107 9.6914L34.0046 10.655L34.9464 10.2825C35.0266 10.2507 35.0998 10.3417 35.0506 10.4124L34.4754 11.2415L35.3558 11.7406C35.4309 11.7831 35.4048 11.8966 35.3185 11.9025L34.3073 11.9727L34.4635 12.9675C34.4769 13.0524 34.3712 13.1029 34.3127 13.0396L33.627 12.298L32.9413 13.0396C32.8827 13.1028 32.7772 13.0523 32.7906 12.9675L32.9468 11.9727L31.9355 11.9025C31.8492 11.8965 31.8231 11.7831 31.8983 11.7406L32.7786 11.2415L32.2034 10.4124C32.1543 10.3417 32.2274 10.2507 32.3077 10.2825L33.2495 10.655L33.5434 9.6914C33.5684 9.60925 33.6856 9.60925 33.7107 9.6914V9.6914ZM27.5112 22.358L27.8051 23.3216L28.7468 22.9489C28.827 22.9172 28.9002 23.0081 28.851 23.0789L28.2758 23.908L29.1562 24.4071C29.2313 24.4496 29.2052 24.5631 29.1189 24.569L28.1077 24.6391L28.2638 25.634C28.2772 25.7189 28.1715 25.7694 28.113 25.7061L27.4273 24.9645L26.7416 25.7061C26.6831 25.7693 26.5775 25.7188 26.5908 25.634L26.7469 24.6391L25.7357 24.569C25.6494 24.5631 25.6233 24.4496 25.6984 24.4071L26.5788 23.908L26.0036 23.0789C25.9544 23.0081 26.0276 22.9172 26.1078 22.9489L27.0496 23.3216L27.3435 22.358C27.3689 22.2758 27.4862 22.2758 27.5112 22.358V22.358ZM29.7848 14.5896L29.5489 15.2923L28.8032 15.2981C28.7067 15.2989 28.6666 15.4212 28.7443 15.4782L29.3442 15.9182L29.1192 16.6245C29.0901 16.7159 29.195 16.7915 29.2734 16.7357L29.8801 16.305L30.4869 16.7357C30.5654 16.7914 30.6702 16.7158 30.6411 16.6245L30.4161 15.9182L31.0161 15.4782C31.0938 15.4211 31.0537 15.2989 30.9572 15.2981L30.2115 15.2923L29.9756 14.5896C29.9449 14.4987 29.8153 14.4987 29.7848 14.5896V14.5896Z" fill="#F5F5F5"/>
</g>
<defs>
<clipPath id="clip0_2_304">
<rect width="30" height="30" rx="15" fill="white"/>
</clipPath>
</defs>
</svg>
