<svg width="30" height="30" viewBox="0 0 30 30" fill="none" xmlns="http://www.w3.org/2000/svg">
<g clip-path="url(#clip0_2_352)">
<rect width="30" height="30" rx="15" fill="#41479B"/>
<path d="M35.4052 30.4482H-5.40516C-7.39059 30.4482 -9 28.8388 -9 26.8534V2.59484C-9 0.6095 -7.39059 -1 -5.40516 -1H35.4052C37.3905 -1 39 0.609406 39 2.59484V26.8535C39 28.8388 37.3906 30.4482 35.4052 30.4482Z" fill="#41479B"/>
<path d="M-8.17237 14.7241H-6.73481L0.931125 9.70156V14.7241H5.06906V9.70156L12.7349 14.7241H14.1725C14.392 14.7241 14.6025 14.6369 14.7577 14.4817C14.9129 14.3265 15.0001 14.116 15.0001 13.8965V13.2401L8.42306 8.93103H15V4.79309H8.42297L15 0.484063V-0.172375C15 -0.281064 14.9786 -0.38869 14.937 -0.489108C14.8954 -0.589525 14.8345 -0.680767 14.7576 -0.757622C14.6808 -0.834477 14.5895 -0.895438 14.4891 -0.937026C14.3887 -0.978614 14.2811 -1.00001 14.1724 -1H12.7348L5.06887 4.02256V-1H0.930938V4.02256L-6.48338 -0.835188C-7.34906 -0.563313 -8.07281 0.0275939 -8.51878 0.79925L-2.42288 4.79309H-9V8.93103H-2.42297L-9 13.2401V13.8965C-8.99998 14.116 -8.91277 14.3265 -8.75757 14.4817C-8.60236 14.6369 -8.39187 14.7241 -8.17237 14.7241Z" fill="#F5F5F5"/>
<path d="M15 5.62072H4.24134V-1H1.75866V5.62072H-9V8.10341H1.75866V14.7241H4.24134V8.10341H15V5.62072Z" fill="#FF4B55"/>
<path d="M-8.22867 0.371187L-1.41661 4.79309H0.103456L-7.63054 -0.227219C-7.85265 -0.0518466 -8.0534 0.148997 -8.22867 0.371187ZM6.58908 4.79309L14.8741 -0.584969C14.7301 -0.828625 14.4761 -1 14.1724 -1H13.9935L5.06902 4.79309H6.58908ZM-0.611762 8.93103L-8.88098 14.2988C-8.73839 14.5483 -8.48029 14.7241 -8.17233 14.7241H-8.01623L0.908395 8.93103H-0.611762ZM14.9869 13.9615L7.23699 8.93103H5.71693L14.5176 14.6437C14.7812 14.5213 14.9621 14.2649 14.9869 13.9615ZM28.0757 25.2347C28.0422 25.2347 28.0083 25.2241 27.9796 25.204L27 24.504L26.0205 25.204C25.9921 25.2242 25.9582 25.235 25.9234 25.2348C25.8886 25.2347 25.8548 25.2236 25.8266 25.2031C25.7985 25.1826 25.7775 25.1538 25.7667 25.1208C25.7559 25.0877 25.7557 25.0521 25.7663 25.0189L26.1296 23.8712L25.1614 23.1568C25.1335 23.1362 25.1128 23.1073 25.1021 23.0743C25.0915 23.0412 25.0915 23.0057 25.1021 22.9726C25.1129 22.9395 25.1337 22.9107 25.1618 22.8901C25.1899 22.8695 25.2237 22.8582 25.2585 22.8579L26.4623 22.8481L26.843 21.7062C26.8657 21.6391 26.9291 21.593 27.0002 21.593C27.0714 21.593 27.1349 21.639 27.1575 21.7062L27.5382 22.8481L28.742 22.8579C28.8136 22.8587 28.8762 22.9048 28.8984 22.9726C28.909 23.0057 28.909 23.0412 28.8984 23.0743C28.8877 23.1073 28.867 23.1362 28.8391 23.1568L27.8709 23.8712L28.2342 25.0189C28.2445 25.0521 28.2443 25.0877 28.2334 25.1207C28.2225 25.1538 28.2016 25.1826 28.1735 25.2031C28.1441 25.2241 28.1098 25.2347 28.0757 25.2347Z" fill="#FF4B55"/>
<path d="M27 21.7588L27.4182 23.013L28.7403 23.0232L27.6767 23.8085L28.0755 25.069L27 24.3003L25.9244 25.0692L26.3232 23.8087L25.2596 23.0234L26.5817 23.0131L27 21.7588ZM27 21.4277C26.9305 21.4277 26.8628 21.4496 26.8064 21.4902C26.7501 21.5308 26.7079 21.5881 26.6859 21.654L26.3425 22.6838L25.2571 22.6922C25.2149 22.6611 25.1659 22.6404 25.1141 22.6319C25.0624 22.6234 25.0093 22.6274 24.9594 22.6434C24.9094 22.6594 24.864 22.6871 24.8269 22.7241C24.7897 22.7611 24.7619 22.8064 24.7457 22.8563C24.7295 22.9062 24.7254 22.9592 24.7337 23.011C24.742 23.0628 24.7625 23.1119 24.7935 23.1542C24.8244 23.1965 24.865 23.2308 24.9119 23.2544C24.9588 23.2779 25.0106 23.29 25.063 23.2896L25.9362 23.9344L25.6088 24.9693C25.5932 25.0189 25.5894 25.0715 25.5979 25.1229C25.6063 25.1742 25.6267 25.2228 25.6575 25.2648C25.6882 25.3067 25.7284 25.3409 25.7748 25.3644C25.8212 25.3879 25.8725 25.4002 25.9245 25.4002C25.9919 25.4002 26.0594 25.3796 26.117 25.3384L27.0001 24.7072L27.8832 25.3384C27.9398 25.3788 28.0076 25.4004 28.077 25.4001C28.1465 25.3998 28.2141 25.3778 28.2704 25.337C28.3266 25.2962 28.3685 25.2387 28.3902 25.1727C28.4119 25.1067 28.4124 25.0356 28.3914 24.9693L28.0641 23.9344L28.9372 23.2896C28.9897 23.29 29.0414 23.2779 29.0882 23.2543C29.135 23.2307 29.1756 23.1964 29.2065 23.1541C29.2375 23.1118 29.258 23.0628 29.2662 23.011C29.2745 22.9593 29.2704 22.9063 29.2542 22.8564C29.238 22.8066 29.2102 22.7613 29.1731 22.7243C29.136 22.6873 29.0906 22.6596 29.0407 22.6436C28.9908 22.6276 28.9378 22.6236 28.8861 22.6321C28.8344 22.6405 28.7854 22.6611 28.7432 22.6922L27.6577 22.6838L27.3143 21.654C27.2922 21.5882 27.25 21.5309 27.1936 21.4903C27.1372 21.4497 27.0695 21.4278 27 21.4277Z" fill="#F5F5F5"/>
<path d="M28.0758 11.8921C28.0419 11.8921 28.0084 11.8815 27.9796 11.8614L27.0001 11.1608L26.0205 11.8615C25.9924 11.8813 25.9588 11.8921 25.9243 11.8922C25.8904 11.8922 25.8561 11.8816 25.827 11.8606C25.799 11.8401 25.778 11.8112 25.7672 11.7782C25.7563 11.7452 25.756 11.7096 25.7664 11.6764L26.1296 10.5287L25.1615 9.81349C25.1336 9.79281 25.1129 9.76394 25.1022 9.7309C25.0916 9.69787 25.0916 9.66233 25.1021 9.62927C25.1129 9.5962 25.1338 9.56735 25.1619 9.54677C25.1899 9.52619 25.2237 9.51491 25.2585 9.51452L26.4624 9.50561L26.8431 8.36364C26.8658 8.29661 26.9291 8.25049 27.0003 8.25049C27.0715 8.25049 27.1349 8.29652 27.1575 8.36364L27.5382 9.50561L28.7421 9.51452C28.8132 9.51536 28.8762 9.56139 28.8985 9.62927C28.909 9.66233 28.909 9.69786 28.8983 9.73089C28.8877 9.76393 28.867 9.7928 28.8391 9.81349L27.871 10.5287L28.2342 11.6764C28.2446 11.7096 28.2443 11.7452 28.2335 11.7782C28.2226 11.8113 28.2016 11.8401 28.1736 11.8606C28.1441 11.8816 28.1098 11.8921 28.0758 11.8921Z" fill="#FF4B55"/>
<path d="M27 8.41599L27.4182 9.67018L28.7403 9.6804L27.6767 10.4657L28.0755 11.7263L27 10.9575L25.9244 11.7263L26.3232 10.4657L25.2596 9.6804L26.5817 9.67018L27 8.41599ZM27 8.08496C26.9305 8.08497 26.8628 8.10683 26.8064 8.14744C26.7501 8.18806 26.7079 8.24537 26.6859 8.31127L26.3425 9.34102L25.2571 9.34946C25.2149 9.31832 25.1659 9.29764 25.1141 9.28915C25.0624 9.28066 25.0093 9.28458 24.9594 9.30061C24.9094 9.31663 24.864 9.34429 24.8269 9.38131C24.7897 9.41833 24.7619 9.46365 24.7457 9.51354C24.7295 9.56342 24.7254 9.61644 24.7337 9.66823C24.742 9.72002 24.7625 9.76909 24.7935 9.81141C24.8244 9.85372 24.865 9.88807 24.9119 9.91161C24.9588 9.93516 25.0106 9.94723 25.063 9.94684L25.9362 10.5916L25.6088 11.6266C25.5932 11.6762 25.5894 11.7288 25.5978 11.7801C25.6063 11.8314 25.6267 11.88 25.6575 11.922C25.6882 11.964 25.7284 11.9981 25.7748 12.0216C25.8212 12.0451 25.8725 12.0574 25.9245 12.0574C25.9919 12.0574 26.0594 12.0368 26.117 11.9956L27.0001 11.3644L27.8832 11.9956C27.9397 12.036 28.0075 12.0576 28.077 12.0573C28.1465 12.0571 28.2141 12.035 28.2704 11.9942C28.3266 11.9534 28.3685 11.8959 28.3902 11.8299C28.4119 11.7639 28.4124 11.6928 28.3914 11.6266L28.064 10.5916L28.9372 9.94684C29.0519 9.86218 29.0994 9.71377 29.0554 9.57821C29.0113 9.44265 28.8856 9.35049 28.7432 9.34946L27.6577 9.34102L27.3143 8.31127C27.2922 8.24537 27.25 8.18807 27.1936 8.14747C27.1372 8.10686 27.0695 8.08499 27 8.08496Z" fill="#F5F5F5"/>
<path d="M22.2827 17.6852C22.2488 17.6852 22.2153 17.6746 22.1865 17.6544L21.2071 16.9537L20.2275 17.6544C20.1994 17.6743 20.1658 17.685 20.1314 17.6852C20.0974 17.6852 20.0631 17.6746 20.034 17.6536C20.006 17.633 19.9851 17.6042 19.9742 17.5712C19.9633 17.5382 19.963 17.5026 19.9734 17.4694L20.3367 16.3217L19.3685 15.6065C19.3406 15.5858 19.3199 15.5569 19.3093 15.5239C19.2986 15.4908 19.2986 15.4553 19.3092 15.4222C19.32 15.3892 19.3409 15.3603 19.3689 15.3397C19.397 15.3192 19.4308 15.3079 19.4655 15.3075L20.6694 15.2986L21.0501 14.1566C21.0728 14.0896 21.1362 14.0435 21.2073 14.0435C21.2785 14.0435 21.3419 14.0895 21.3645 14.1566L21.7453 15.2986L22.9491 15.3075C23.0203 15.3083 23.0833 15.3544 23.1055 15.4222C23.116 15.4553 23.116 15.4908 23.1054 15.5239C23.0947 15.5569 23.074 15.5858 23.0461 15.6065L22.078 16.3217L22.4413 17.4694C22.4516 17.5026 22.4514 17.5382 22.4405 17.5712C22.4296 17.6042 22.4087 17.633 22.3806 17.6536C22.3521 17.6741 22.3179 17.6851 22.2827 17.6852Z" fill="#FF4B55"/>
<path d="M21.207 14.209L21.6252 15.4631L22.9473 15.4734L21.8837 16.2587L22.2825 17.5193L21.2069 16.7504L20.1313 17.5193L20.5301 16.2587L19.4666 15.4734L20.7886 15.4631L21.207 14.209ZM21.207 13.8779C21.1375 13.8779 21.0698 13.8998 21.0135 13.9404C20.9571 13.981 20.9149 14.0383 20.893 14.1042L20.5496 15.134L19.4641 15.1424C19.4219 15.1113 19.3729 15.0906 19.3212 15.0821C19.2694 15.0736 19.2164 15.0775 19.1664 15.0936C19.1165 15.1096 19.0711 15.1373 19.0339 15.1743C18.9968 15.2113 18.9689 15.2566 18.9527 15.3065C18.9365 15.3564 18.9324 15.4094 18.9407 15.4612C18.949 15.513 18.9695 15.5621 19.0005 15.6044C19.0315 15.6467 19.0721 15.681 19.1189 15.7046C19.1658 15.7281 19.2176 15.7402 19.2701 15.7398L20.1432 16.3846L19.8159 17.4195C19.795 17.4858 19.7954 17.5569 19.8172 17.6228C19.8389 17.6888 19.8809 17.7463 19.9371 17.7871C19.9933 17.8279 20.0609 17.85 20.1303 17.8503C20.1998 17.8505 20.2676 17.829 20.3241 17.7886L21.2072 17.1574L22.0903 17.7886C22.1469 17.829 22.2146 17.8505 22.2841 17.8503C22.3536 17.85 22.4212 17.828 22.4774 17.7872C22.5336 17.7463 22.5755 17.6889 22.5972 17.6229C22.619 17.5569 22.6194 17.4858 22.5984 17.4195L22.2711 16.3846L23.1443 15.7398C23.2589 15.6551 23.3064 15.5067 23.2624 15.3712C23.2183 15.2356 23.0926 15.1435 22.9502 15.1424L21.8648 15.134L21.5214 14.1042C21.4993 14.0383 21.4571 13.981 21.4007 13.9404C21.3442 13.8998 21.2765 13.878 21.207 13.8779Z" fill="#F5F5F5"/>
</g>
<defs>
<clipPath id="clip0_2_352">
<rect width="30" height="30" rx="15" fill="white"/>
</clipPath>
</defs>
</svg>
