<svg width="30" height="30" viewBox="0 0 30 30" fill="none" xmlns="http://www.w3.org/2000/svg">
<g clip-path="url(#clip0_2_315)">
<rect x="-0.000366211" width="30" height="30" rx="15" fill="#41479B"/>
<path d="M42.4048 31.4483H1.59448C-0.39096 31.4483 -2.00037 29.8389 -2.00037 27.8534V3.59484C-2.00037 1.6095 -0.39096 0 1.59448 0H42.4048C44.3901 0 45.9996 1.60941 45.9996 3.59484V27.8536C45.9996 29.8389 44.3902 31.4483 42.4048 31.4483Z" fill="#F5F5F5"/>
<path d="M42.4048 0H1.59448C-0.39096 0 -2.00037 1.60941 -2.00037 3.59484V15.7241H45.9996V3.59484C45.9996 1.60941 44.3902 0 42.4048 0Z" fill="#FF4B55"/>
<path d="M4.80309 7.87367C4.80309 5.1523 6.79996 2.89639 9.40743 2.47902C9.54899 2.45633 9.55537 2.26161 9.41568 2.22936C8.77012 2.08095 8.08452 2.03867 7.37259 2.13561C4.56027 2.51867 2.3864 4.95242 2.34665 7.79042C2.30137 11.031 4.91381 13.6697 8.13899 13.6697C8.57802 13.6697 9.00431 13.6184 9.41456 13.524C9.55415 13.4919 9.54712 13.2967 9.40574 13.274C6.79931 12.8571 4.80309 10.6057 4.80309 7.87367Z" fill="#F5F5F5"/>
<path d="M9.45036 9.32982L9.20539 10.0644L8.43111 10.0704C8.33089 10.0713 8.28926 10.1992 8.36998 10.2587L8.99286 10.7187L8.75923 11.457C8.72904 11.5526 8.83789 11.6317 8.91936 11.5733L9.54936 11.1231L10.1794 11.5733C10.2609 11.6317 10.3697 11.5525 10.3395 11.457L10.1059 10.7187L10.7287 10.2587C10.8095 10.1991 10.7678 10.0713 10.6676 10.0704L9.89333 10.0644L9.64836 9.32982C9.61658 9.23485 9.48204 9.23485 9.45036 9.32982Z" fill="#F5F5F5"/>
<path d="M13.2779 9.32982L13.0329 10.0644L12.2586 10.0704C12.1584 10.0713 12.1168 10.1992 12.1975 10.2587L12.8204 10.7187L12.5867 11.457C12.5566 11.5526 12.6654 11.6317 12.7469 11.5733L13.3769 11.1231L14.0069 11.5733C14.0884 11.6317 14.1972 11.5525 14.167 11.457L13.9334 10.7187L14.5563 10.2587C14.637 10.1991 14.5953 10.0713 14.4951 10.0704L13.7208 10.0644L13.4759 9.32982C13.4441 9.23485 13.3097 9.23485 13.2779 9.32982Z" fill="#F5F5F5"/>
<path d="M11.3814 3.42309L11.1364 4.15771L10.3621 4.16371C10.2619 4.16446 10.2203 4.29243 10.301 4.35196L10.9239 4.812L10.6903 5.55028C10.6601 5.6459 10.7689 5.72493 10.8504 5.66662L11.4804 5.21634L12.1104 5.66662C12.192 5.72493 12.3007 5.64581 12.2705 5.55028L12.0369 4.812L12.6598 4.35196C12.7405 4.29234 12.6989 4.16456 12.5986 4.16371L11.8244 4.15771L11.5794 3.42309C11.5476 3.32803 11.4131 3.32803 11.3814 3.42309Z" fill="#F5F5F5"/>
<path d="M8.32963 5.68611L8.08466 6.42074L7.31038 6.42674C7.21016 6.42749 7.16854 6.55546 7.24925 6.61499L7.87213 7.07502L7.6385 7.81331C7.60832 7.90893 7.71716 7.98796 7.79863 7.92965L8.42863 7.47937L9.05863 7.92965C9.14019 7.98796 9.24894 7.90884 9.21876 7.81331L8.98513 7.07502L9.6081 6.61499C9.68882 6.55537 9.64719 6.42758 9.54697 6.42674L8.77269 6.42074L8.52772 5.68611C8.49585 5.59096 8.36132 5.59096 8.32963 5.68611Z" fill="#F5F5F5"/>
<path d="M14.4073 5.68611L14.1623 6.42074L13.388 6.42674C13.2878 6.42749 13.2462 6.55546 13.3269 6.61499L13.9498 7.07502L13.7161 7.81331C13.686 7.90893 13.7948 7.98796 13.8763 7.92965L14.5063 7.47937L15.1363 7.92965C15.2178 7.98796 15.3266 7.90884 15.2964 7.81331L15.0628 7.07502L15.6856 6.61499C15.7664 6.55537 15.7247 6.42758 15.6245 6.42674L14.8502 6.42074L14.6053 5.68611C14.5735 5.59096 14.439 5.59096 14.4073 5.68611Z" fill="#F5F5F5"/>
</g>
<defs>
<clipPath id="clip0_2_315">
<rect x="-0.000366211" width="30" height="30" rx="15" fill="white"/>
</clipPath>
</defs>
</svg>
