<?xml version="1.0" encoding="UTF-8"?>
<svg xmlns="http://www.w3.org/2000/svg" xmlns:xlink="http://www.w3.org/1999/xlink" width="48px" height="48px" viewBox="0 0 48 48" version="1.1">
<g id="surface1">
<path style=" stroke:none;fill-rule:nonzero;fill:rgb(86.27451%,87.45098%,88.235294%);fill-opacity:1;" d="M 6.242188 39.203125 L 6.242188 45.246094 C 6.242188 46.566406 7.316406 47.636719 8.632812 47.636719 L 39.367188 47.636719 C 40.6875 47.636719 41.757812 46.566406 41.757812 45.246094 L 41.757812 11.128906 C 41.757812 10.492188 41.507812 9.890625 41.058594 9.441406 L 32.679688 1.0625 C 32.230469 0.613281 31.628906 0.363281 30.992188 0.363281 L 8.632812 0.363281 C 7.316406 0.363281 6.242188 1.433594 6.242188 2.753906 L 6.242188 39.203125 "/>
<path style=" stroke:none;fill-rule:nonzero;fill:rgb(76.862745%,79.607843%,82.352941%);fill-opacity:1;" d="M 32.019531 10.035156 L 41.757812 19.734375 L 41.71875 10.726562 Z M 32.019531 10.035156 "/>
<path style=" stroke:none;fill-rule:nonzero;fill:rgb(67.058824%,69.803922%,72.156863%);fill-opacity:1;" d="M 41.058594 9.441406 L 32.679688 1.0625 C 32.324219 0.707031 31.878906 0.484375 31.390625 0.402344 L 31.390625 8.480469 C 31.390625 9.71875 32.398438 10.726562 33.636719 10.726562 L 41.71875 10.726562 C 41.636719 10.242188 41.414062 9.792969 41.058594 9.441406 Z M 41.058594 9.441406 "/>
<path style=" stroke:none;fill-rule:nonzero;fill:rgb(92.941176%,44.313725%,38.039216%);fill-opacity:1;" d="M 26.46875 33.890625 C 26.273438 33.617188 25.902344 33.523438 25.609375 33.683594 C 24.957031 34.042969 24.230469 34.226562 23.476562 34.226562 C 21.578125 34.226562 19.960938 33.035156 19.320312 31.363281 L 20.890625 31.363281 C 21.085938 31.363281 21.261719 31.257812 21.355469 31.085938 C 21.445312 30.917969 21.4375 30.710938 21.332031 30.546875 L 16.964844 23.867188 C 16.867188 23.71875 16.699219 23.628906 16.523438 23.628906 C 16.347656 23.628906 16.179688 23.71875 16.082031 23.867188 L 11.714844 30.546875 C 11.609375 30.710938 11.597656 30.917969 11.691406 31.085938 C 11.785156 31.257812 11.960938 31.363281 12.15625 31.363281 L 14.15625 31.363281 C 14.914062 35.820312 18.804688 39.230469 23.476562 39.230469 C 25.25 39.230469 26.949219 38.746094 28.441406 37.824219 C 28.777344 37.613281 28.859375 37.160156 28.625 36.84375 Z M 26.46875 33.890625 "/>
<path style=" stroke:none;fill-rule:nonzero;fill:rgb(53.333333%,75.294118%,34.117647%);fill-opacity:1;" d="M 36.308594 27.207031 C 36.214844 27.035156 36.039062 26.929688 35.847656 26.929688 L 33.804688 26.929688 C 32.960938 22.574219 29.121094 19.273438 24.523438 19.273438 C 22.921875 19.273438 21.363281 19.675781 19.972656 20.441406 C 19.628906 20.632812 19.527344 21.078125 19.742188 21.40625 L 21.746094 24.46875 C 21.929688 24.746094 22.289062 24.863281 22.589844 24.71875 C 23.191406 24.429688 23.847656 24.277344 24.523438 24.277344 C 26.339844 24.277344 27.902344 25.371094 28.59375 26.933594 L 27.109375 26.933594 C 26.914062 26.933594 26.738281 27.039062 26.644531 27.207031 C 26.554688 27.378906 26.5625 27.585938 26.667969 27.746094 L 31.035156 34.425781 C 31.132812 34.574219 31.300781 34.664062 31.476562 34.664062 C 31.65625 34.664062 31.820312 34.574219 31.917969 34.425781 L 36.285156 27.746094 C 36.390625 27.585938 36.402344 27.378906 36.308594 27.207031 Z M 36.308594 27.207031 "/>
</g>
</svg>
