<svg width="15" height="18" viewBox="0 0 15 18" fill="none" xmlns="http://www.w3.org/2000/svg">
<path fill-rule="evenodd" clip-rule="evenodd" d="M9.70588 5.82484C9.70588 5.24045 9.40941 5.2955 9.04412 5.2955H2.42647C2.06118 5.2955 1.76471 5.24045 1.76471 5.82484V14.8824C1.76471 15.4346 2.21242 15.8824 2.76471 15.8824H8.70588C9.25817 15.8824 9.70588 15.4346 9.70588 14.8824V5.82484ZM11.4706 5.29412V15.8824C11.4706 16.8565 10.829 17.6471 10.0368 17.6471H1.43382C0.642353 17.6471 0 16.8565 0 15.8824V5.29412C0 4.31912 0.642353 3.52941 1.43382 3.52941H10.0368C10.829 3.52941 11.4706 4.31912 11.4706 5.29412ZM15 1.76471V13.2068C15 13.7096 14.6541 14.1176 14.2279 14.1176C13.8018 14.1176 13.2353 13.7381 13.2353 13.2353V2.64706C13.2353 2.14429 12.7791 1.82163 12.3529 1.82163H3.41912C2.99294 1.82163 2.64706 1.38512 2.64706 0.882353C2.64706 0.379583 2.99294 0 3.41912 0H13.2353C14.1764 0 15 0.626186 15 1.76471Z" fill="white"/>
</svg>
